<?xml version="1.0" encoding="UTF-8"?>
<svg width="40px" height="40px" viewBox="0 0 40 40" version="1.1" xmlns="http://www.w3.org/2000/svg">
  <g stroke="none" stroke-width="1" fill="none" fill-rule="evenodd">
    <circle fill="#0082C9" cx="20" cy="20" r="20"/>
    <path d="M10,16 C13.3137085,16 16,18.6862915 16,22 C16,25.3137085 13.3137085,28 10,28 L10,16 Z" fill="#FFFFFF" opacity="0.9"/>
    <path d="M20,8 C23.3137085,8 26,10.6862915 26,14 C26,17.3137085 23.3137085,20 20,20 L20,8 Z" fill="#FFFFFF" opacity="0.6"/>
    <path d="M30,12 C33.3137085,12 36,14.6862915 36,18 C36,21.3137085 33.3137085,24 30,24 L30,12 Z" fill="#FFFFFF" opacity="0.3"/>
    <path d="M8,8 L32,8 L32,9 C32,9.55228475 31.5522847,10 31,10 L9,10 C8.44771525,10 8,9.55228475 8,9 L8,8 Z" fill="#FFFFFF" opacity="0.5"/>
    <path d="M8,30 L32,30 L32,31 C32,31.5522847 31.5522847,32 31,32 L9,32 C8.44771525,32 8,31.5522847 8,31 L8,30 Z" fill="#FFFFFF" opacity="0.5"/>
  </g>
</svg>